<svg width="11" height="11" viewBox="0 0 11 11" fill="none" xmlns="http://www.w3.org/2000/svg">
<path d="M5.5 1.03125C4.61617 1.03125 3.75218 1.29334 3.0173 1.78437C2.28242 2.2754 1.70964 2.97333 1.37142 3.78988C1.03319 4.60644 0.94469 5.50496 1.11712 6.37181C1.28955 7.23866 1.71515 8.03492 2.34012 8.65988C2.96508 9.28485 3.76134 9.71046 4.62819 9.88288C5.49504 10.0553 6.39356 9.96681 7.21012 9.62859C8.02668 9.29036 8.7246 8.71759 9.21563 7.9827C9.70666 7.24782 9.96875 6.38383 9.96875 5.5C9.9675 4.3152 9.49628 3.17928 8.6585 2.3415C7.82072 1.50372 6.6848 1.0325 5.5 1.03125ZM5.5 9.28125C4.75214 9.28125 4.02108 9.05948 3.39925 8.64399C2.77743 8.2285 2.29278 7.63795 2.00658 6.94702C1.72039 6.25609 1.64551 5.49581 1.79141 4.76231C1.93731 4.02882 2.29744 3.35507 2.82625 2.82625C3.35507 2.29744 4.02883 1.93731 4.76232 1.79141C5.49581 1.64551 6.25609 1.72039 6.94702 2.00658C7.63796 2.29277 8.22851 2.77743 8.644 3.39925C9.05948 4.02107 9.28125 4.75214 9.28125 5.5C9.28011 6.5025 8.88137 7.46362 8.17249 8.17249C7.46362 8.88137 6.5025 9.28011 5.5 9.28125Z" fill="black"/>
</svg>
