<svg width="35" height="20" viewBox="0 0 35 20" fill="none" xmlns="http://www.w3.org/2000/svg">
<path d="M18.5903 19.5377L34.5841 2.92521C34.8511 2.64802 35 2.27976 35 1.8968C35 1.51385 34.8511 1.14559 34.5841 0.868404L34.566 0.850517C34.4365 0.715677 34.2807 0.608307 34.1081 0.534935C33.9354 0.461565 33.7494 0.423729 33.5615 0.423729C33.3736 0.423729 33.1876 0.461565 33.0149 0.534935C32.8422 0.608307 32.6864 0.715677 32.557 0.850517L17.497 16.4942L2.44302 0.850517C2.31358 0.715677 2.15778 0.608307 1.9851 0.534935C1.81241 0.461565 1.62645 0.423729 1.43852 0.423729C1.25059 0.423729 1.06462 0.461565 0.891941 0.534935C0.719254 0.608307 0.563454 0.715677 0.434017 0.850517L0.415943 0.868404C0.148945 1.14559 0 1.51385 0 1.8968C0 2.27976 0.148945 2.64802 0.415943 2.92521L16.4097 19.5377C16.5503 19.6838 16.7195 19.8001 16.9069 19.8795C17.0943 19.959 17.2961 20 17.5 20C17.7039 20 17.9057 19.959 18.0931 19.8795C18.2805 19.8001 18.4497 19.6838 18.5903 19.5377Z" fill="#E0E8EC"/>
</svg>
